HIERARCHY
ROOT ui
{
	 OFFSET 0 0 0
	 CHANNELS 3 XPosition YPosition Z Position
	 EndSite
	 {
	 OFFSET 0 -1 0
	 }
}
ROOT li
{
	 OFFSET 0 0 0
	 CHANNELS 3 XPosition YPosition Z Position
	 EndSite
	 {
	 OFFSET 0 -1 0
	 }
}
ROOT ul
{
	 OFFSET 0 0 0
	 CHANNELS 3 XPosition YPosition Z Position
	 EndSite
	 {
	 OFFSET 0 -1 0
	 }
}
ROOT ll
{
	 OFFSET 0 0 0
	 CHANNELS 3 XPosition YPosition Z Position
	 EndSite
	 {
	 OFFSET 0 -1 0
	 }
}
ROOT tt
{
	 OFFSET 0 0 0
	 CHANNELS 3 XPosition YPosition Z Position
	 EndSite
	 {
	 OFFSET 0 -1 0
	 }
}
ROOT tb
{
	 OFFSET 0 0 0
	 CHANNELS 3 XPosition YPosition Z Position
	 EndSite
	 {
	 OFFSET 0 -1 0
	 }
}
ROOT td
{
	 OFFSET 0 0 0
	 CHANNELS 3 XPosition YPosition Z Position
	 EndSite
	 {
	 OFFSET 0 -1 0
	 }
}
ROOT v
{
	 OFFSET 0 0 0
	 CHANNELS 3 XPosition YPosition Z Position
	 EndSite
	 {
	 OFFSET 0 -1 0
	 }
}
ROOT bn
{
	 OFFSET 0 0 0
	 CHANNELS 3 XPosition YPosition Z Position
	 EndSite
	 {
	 OFFSET 0 -1 0
	 }
}
MOTION
Frames: 13
Frame Time: 0.002
-0.00768438720703125	-3.0623999238014223E-4	0		0.5998966674804688	-2.53630908203125	0		-0.9433217163085937	0.24017831420898436	0		-0.37584332275390625	-3.067327392578125	0		1.609451416015625	-0.6976417846679688	0		3.205033447265625	0.026479768753051757	0		4.50979736328125	0.13972171020507812	0		5.94479248046875	0.4071061706542969	0		-0.08236871337890625	6.00038916015625	0		
-0.0027849450111389162	-0.0045351128578186035	0		0.60975341796875	-2.54560205078125	0		-0.948294677734375	0.24508128356933595	0		-0.34563739013671874	-3.052921875	0		1.6147183837890624	-0.6768543090820313	0		3.195178466796875	0.03950242614746094	0		4.4928701171875	0.14786080932617188	0		5.94063037109375	0.39907687377929685	0		-0.14964720153808594	5.98919482421875	0		
-0.0028072760105133055	-0.0047154860496521	0		0.57699609375	-2.529302490234375	0		-0.9433924560546875	0.2398177947998047	0		-0.40031436157226563	-3.03131884765625	0		1.606920654296875	-0.661901123046875	0		3.209039306640625	0.031161794662475584	0		4.48983154296875	0.1467798156738281	0		5.949587890625	0.3978416748046875	0		-0.11469062042236328	5.992509765625	0		
0.00427846622467041	9.780660271644591E-4	0		0.6090838012695312	-2.5259599609375	0		-0.9383384399414062	0.24352784729003907	0		-0.35787664794921875	-3.004135009765625	0		1.616072265625	-0.6522154541015625	0		3.210455078125	0.05998140716552734	0		4.498015625	0.1595175323486328	0		5.953697265625	0.4056565246582031	0		-0.11476930999755859	5.992302734375	0		
0.008361083984375	0.004688595771789551	0		0.586247314453125	-2.518854248046875	0		-0.9442438354492187	0.2483685302734375	0		-0.38941891479492186	-2.976915771484375	0		1.6254644775390625	-0.6275563354492187	0		3.187339111328125	0.05012492370605469	0		4.4910830078125	0.1624482421875	0		5.9367333984375	0.4067509765625	0		-0.0817298583984375	5.998595703125	0		
-0.002727921962738037	-0.005412290096282959	0		0.602392822265625	-2.515334716796875	0		-0.8742730712890625	0.2420933380126953	0		-0.3550537414550781	-2.958669921875	0		1.61961328125	-0.6217068481445313	0		3.191462646484375	0.054854122161865235	0		4.4911337890625	0.16225425720214845	0		5.94966455078125	0.39839279174804687	0		-0.11583242797851563	5.993822265625	0		
0.0013963940143585205	-0.002758563041687012	0		0.5755585327148437	-2.512228271484375	0		-0.9481731567382813	0.2438497314453125	0		-0.3953791809082031	-2.92038134765625	0		1.63496044921875	-0.6041873168945312	0		3.200513916015625	0.05248547744750977	0		4.50119775390625	0.16089100646972657	0		5.93685595703125	0.4063798217773438	0		-0.082759521484375	5.99905908203125	0		
-0.002534907102584839	-0.006019865036010742	0		0.60369189453125	-2.513938232421875	0		-0.8781301879882812	0.23851629638671876	0		-0.4139346008300781	-2.90043701171875	0		1.601213134765625	-0.59499560546875	0		3.220807861328125	0.06492974090576172	0		4.50050634765625	0.17465560913085937	0		5.94594580078125	0.40502557373046877	0		-0.14992132568359376	5.98669775390625	0		
0.004691397190093994	-4.693019986152649E-4	0		0.58301806640625	-2.503978759765625	0		-0.9379437255859375	0.24200950622558592	0		-0.40226300048828123	-2.866952880859375	0		1.619676025390625	-0.573578125	0		3.204849853515625	0.05786119842529297	0		4.50064501953125	0.17437835693359374	0		5.94608056640625	0.40477130126953126	0		-0.11579314422607422	5.99186083984375	0		
-6.466899812221528E-5	0.004223358154296875	0		0.576744384765625	-2.46825146484375	0		-0.9377755126953125	0.24161624145507812	0		-0.44249887084960937	-2.8287568359375	0		1.5920882568359376	-0.55753271484375	0		3.218176513671875	0.06834806060791015	0		4.5087138671875	0.16695915222167967	0		5.9452607421875	0.4055028381347656	0		-0.11570304107666016	5.99248046875	0		
0.00506684398651123	-0.001253851056098938	0		0.5479906616210938	-2.468235595703125	0		-0.8635836181640625	0.24014070129394532	0		-0.4137967834472656	-2.797572509765625	0		1.631282470703125	-0.5594686889648437	0		3.217264892578125	0.06000884246826172	0		4.50404296875	0.17569613647460938	0		5.94545703125	0.4051928405761719	0		-0.08251494598388671	5.9976015625	0		
-0.006726080894470215	-0.0035168519020080564	0		0.5772625122070313	-2.469072998046875	0		-0.9424022216796875	0.23681668090820313	0		-0.44412945556640626	-2.7705751953125	0		1.5878291015625	-0.538252197265625	0		3.208527587890625	0.06175540161132813	0		4.49917529296875	0.1684077911376953	0		5.94179931640625	0.41291238403320313	0		-0.1154609375	5.99163623046875	0		
-0.006460915088653565	-0.003977406978607178	0		0.5526417236328125	-2.46416943359375	0		-0.9370846557617187	0.24026931762695314	0		-0.4364075012207031	-2.742145263671875	0		1.611143310546875	-0.5360136108398438	0		3.212578125	0.04629236221313476	0		4.50453662109375	0.17494952392578125	0		5.94692919921875	0.40347943115234375	0		-0.11432280731201172	5.98916015625	0		
